<svg xmlns="http://www.w3.org/2000/svg" version="1.1" xmlns:xlink="http://www.w3.org/1999/xlink" width="194" height="187"><svg xmlns="http://www.w3.org/2000/svg" version="1.1" xmlns:xlink="http://www.w3.org/1999/xlink" width="194" height="187"><svg id="Capa_1" data-name="Capa 1" xmlns="http://www.w3.org/2000/svg" viewBox="0 0 194 187">
  <defs>
    <style>
      .cls-1 {
        fill: #fff;
      }
    </style>
  </defs>
  <rect width="194" height="187"></rect>
  <path class="cls-1" d="M60.53,126.17c-1.27-1.27-3.32-1.27-4.58,0-1.27,1.27-1.27,3.32,0,4.58,1.27,1.27,3.32,1.27,4.58,0,1.27-1.27,1.27-3.32,0-4.58Z"></path>
  <path class="cls-1" d="M79.96,125.28c-1.69-1.69-4.42-1.69-6.11,0-1.69,1.69-1.69,4.42,0,6.11,1.69,1.69,4.42,1.69,6.11,0,1.69-1.69,1.69-4.42,0-6.11Z"></path>
  <path class="cls-1" d="M61.14,56.16c-1.27-1.27-3.32-1.27-4.58,0-1.27,1.27-1.27,3.32,0,4.58,1.27,1.27,3.32,1.27,4.58,0,1.27-1.27,1.27-3.32,0-4.58Z"></path>
  <path class="cls-1" d="M77.82,108.88c-1.27-1.27-3.32-1.27-4.58,0-1.27,1.27-1.27,3.32,0,4.58,1.27,1.27,3.32,1.27,4.58,0,1.27-1.27,1.27-3.32,0-4.58Z"></path>
  <path class="cls-1" d="M78.12,73.88c-1.27-1.27-3.32-1.27-4.58,0-1.27,1.27-1.27,3.32,0,4.58,1.27,1.27,3.32,1.27,4.58,0,1.27-1.27,1.27-3.32,0-4.58Z"></path>
  <path class="cls-1" d="M80.57,55.28c-1.69-1.69-4.42-1.69-6.11,0-1.69,1.69-1.69,4.42,0,6.11,1.69,1.69,4.42,1.69,6.11,0,1.69-1.69,1.69-4.42,0-6.11Z"></path>
  <path class="cls-1" d="M102.56,124.67c-2.11-2.11-5.53-2.11-7.64,0-2.11,2.11-2.11,5.53,0,7.64,2.11,2.11,5.53,2.11,7.64,0,2.11-2.11,2.11-5.53,0-7.64Z"></path>
  <path class="cls-1" d="M97.24,107.99c-1.69-1.69-4.42-1.69-6.11,0-1.69,1.69-1.69,4.42,0,6.11,1.69,1.69,4.42,1.69,6.11,0,1.69-1.69,1.69-4.42,0-6.11Z"></path>
  <path class="cls-1" d="M95.1,91.6c-1.27-1.27-3.32-1.27-4.58,0-1.27,1.27-1.27,3.32,0,4.58,1.27,1.27,3.32,1.27,4.58,0,1.27-1.27,1.27-3.32,0-4.58Z"></path>
  <path class="cls-1" d="M97.55,72.99c-1.69-1.69-4.42-1.69-6.11,0-1.69,1.69-1.69,4.42,0,6.11,1.69,1.69,4.42,1.69,6.11,0,1.69-1.69,1.69-4.42,0-6.11Z"></path>
  <path class="cls-1" d="M103.18,54.67c-2.11-2.11-5.53-2.11-7.64,0-2.11,2.11-2.11,5.53,0,7.64,2.11,2.11,5.53,2.11,7.64,0,2.11-2.11,2.11-5.53,0-7.64Z"></path>
  <path class="cls-1" d="M119.85,107.38c-2.11-2.11-5.53-2.11-7.64,0-2.11,2.11-2.11,5.53,0,7.64,2.11,2.11,5.53,2.11,7.64,0s2.11-5.53,0-7.64Z"></path>
  <path class="cls-1" d="M114.53,90.71c-1.69-1.69-4.42-1.69-6.11,0-1.69,1.69-1.69,4.42,0,6.11s4.42,1.69,6.11,0,1.69-4.42,0-6.11Z"></path>
  <path class="cls-1" d="M120.15,72.38c-2.11-2.11-5.53-2.11-7.64,0-2.11,2.11-2.11,5.53,0,7.64,2.11,2.11,5.53,2.11,7.64,0,2.11-2.11,2.11-5.53,0-7.64Z"></path>
  <path class="cls-1" d="M137.14,90.1c-2.11-2.11-5.53-2.11-7.64,0-2.11,2.11-2.11,5.53,0,7.64,2.11,2.11,5.53,2.11,7.64,0,2.11-2.11,2.11-5.53,0-7.64Z"></path>
</svg></svg><style>@media (prefers-color-scheme: light) { :root { filter: none; } }
@media (prefers-color-scheme: dark) { :root { filter: none; } }
</style></svg>