<svg width="309" height="298" viewBox="0 0 309 298" fill="none" xmlns="http://www.w3.org/2000/svg">
<path d="M20.4227 269.516C15.7507 264.847 8.17596 264.847 3.50398 269.516C-1.168 274.184 -1.168 281.752 3.50399 286.42C8.17597 291.088 15.7507 291.088 20.4227 286.42C25.0947 281.752 25.0947 274.184 20.4227 269.516Z" fill="black"/>
<path d="M92.1284 266.232C85.8991 260.007 75.7994 260.007 69.5701 266.232C63.3408 272.456 63.3408 282.547 69.5701 288.771C75.7994 294.995 85.8991 294.995 92.1284 288.771C98.3577 282.547 98.3577 272.456 92.1284 266.232Z" fill="black"/>
<path d="M22.6845 11.359C18.0126 6.6909 10.4378 6.6909 5.7658 11.359C1.09382 16.0271 1.09382 23.5956 5.7658 28.2638C10.4378 32.9319 18.0126 32.9319 22.6845 28.2638C27.3565 23.5956 27.3565 16.0271 22.6845 11.359Z" fill="black"/>
<path d="M84.2242 205.765C79.5522 201.097 71.9774 201.097 67.3054 205.765C62.6334 210.433 62.6334 218.002 67.3054 222.67C71.9774 227.338 79.5522 227.338 84.2242 222.67C88.8961 218.002 88.8961 210.433 84.2242 205.765Z" fill="black"/>
<path d="M85.3551 76.7054C80.6831 72.0373 73.1083 72.0373 68.4363 76.7054C63.7643 81.3735 63.7644 88.942 68.4363 93.6101C73.1083 98.2783 80.6831 98.2783 85.3551 93.6101C90.027 88.942 90.027 81.3735 85.3551 76.7054Z" fill="black"/>
<path d="M94.3715 8.0927C88.1422 1.86855 78.0425 1.86855 71.8132 8.09271C65.5839 14.3169 65.5839 24.4082 71.8132 30.6324C78.0425 36.8565 88.1422 36.8565 94.3715 30.6324C100.601 24.4082 100.601 14.3169 94.3715 8.0927Z" fill="black"/>
<path d="M175.554 263.99C167.768 256.21 155.143 256.21 147.356 263.99C139.57 271.771 139.57 284.385 147.356 292.165C155.143 299.945 167.768 299.945 175.554 292.165C183.341 284.385 183.341 271.77 175.554 263.99Z" fill="black"/>
<path d="M155.914 202.5C149.685 196.275 139.585 196.275 133.356 202.5C127.127 208.724 127.127 218.815 133.356 225.039C139.585 231.263 149.685 231.263 155.914 225.039C162.144 218.815 162.144 208.724 155.914 202.5Z" fill="black"/>
<path d="M148.007 142.034C143.335 137.366 135.76 137.366 131.088 142.034C126.416 146.702 126.416 154.271 131.088 158.939C135.76 163.607 143.335 163.607 148.007 158.939C152.679 154.271 152.679 146.702 148.007 142.034Z" fill="black"/>
<path d="M157.061 73.4216C150.831 67.1974 140.732 67.1974 134.502 73.4216C128.273 79.6457 128.273 89.7371 134.502 95.9612C140.732 102.185 150.831 102.185 157.061 95.9612C163.29 89.7371 163.29 79.6457 157.061 73.4216Z" fill="black"/>
<path d="M177.816 5.83515C170.03 -1.94505 157.405 -1.94505 149.618 5.83515C141.832 13.6153 141.832 26.2295 149.618 34.0097C157.405 41.7899 170.03 41.7899 177.816 34.0097C185.603 26.2295 185.603 13.6153 177.816 5.83515Z" fill="black"/>
<path d="M239.356 200.242C231.569 192.462 218.945 192.462 211.158 200.242C203.371 208.022 203.371 220.636 211.158 228.417C218.945 236.197 231.569 236.197 239.356 228.417C247.142 220.636 247.142 208.022 239.356 200.242Z" fill="black"/>
<path d="M219.713 138.751C213.483 132.527 203.384 132.527 197.154 138.751C190.925 144.975 190.925 155.067 197.154 161.291C203.384 167.515 213.483 167.515 219.713 161.291C225.942 155.067 225.942 144.975 219.713 138.751Z" fill="black"/>
<path d="M240.471 71.1626C232.684 63.3824 220.06 63.3824 212.273 71.1626C204.486 78.9428 204.486 91.557 212.273 99.3372C220.06 107.117 232.684 107.117 240.471 99.3372C248.257 91.557 248.257 78.9428 240.471 71.1626Z" fill="black"/>
<path d="M303.16 136.491C295.373 128.711 282.749 128.711 274.962 136.491C267.176 144.272 267.176 156.886 274.962 164.666C282.749 172.446 295.373 172.446 303.16 164.666C310.947 156.886 310.947 144.272 303.16 136.491Z" fill="black"/>
</svg>
