<svg width="1799" height="300" viewBox="0 0 1799 300" fill="none" xmlns="http://www.w3.org/2000/svg">
<path d="M555.464 235.901C531.62 235.901 513.115 233.517 499.948 228.748C486.782 223.875 477.608 217.137 472.424 208.532C467.241 199.928 464.338 188.99 463.716 175.721L463.094 162.347H492.173L492.795 172.922C493.314 181.837 495.024 188.887 497.927 194.07C500.83 199.254 506.687 203.297 515.499 206.2C524.415 208.999 537.632 210.398 555.153 210.398C572.466 210.398 585.58 208.999 594.495 206.2C603.515 203.297 609.476 199.306 612.379 194.226C615.385 189.146 616.888 182.459 616.888 174.166V171.677C616.888 162.866 615.592 155.92 613.001 150.84C610.512 145.76 606.573 141.924 601.182 139.332C595.791 136.741 588.327 134.771 578.789 133.423L530.894 126.737C515.551 124.559 503.473 121.294 494.661 116.94C485.849 112.482 479.422 106.314 475.379 98.4347C471.439 90.5557 469.469 80.2406 469.469 67.4892V59.2474C469.469 47.429 471.854 37.2175 476.623 28.6129C481.495 19.9046 490.152 12.9587 502.592 7.77525C515.136 2.59175 532.345 0 554.22 0C576.82 0 594.495 2.59175 607.247 7.77525C619.998 12.8551 628.81 19.6455 633.683 28.1464C638.659 36.6473 641.458 46.9107 642.08 58.9364L642.391 65.9341H614.089L613.778 61.7355C613.156 53.3382 611.394 46.5997 608.491 41.5198C605.588 36.44 599.938 32.5005 591.541 29.7015C583.144 26.9024 570.807 25.5028 554.531 25.5028C538.566 25.5028 526.436 26.9542 518.143 29.857C509.953 32.656 504.458 36.5955 501.659 41.6753C498.86 46.7552 497.46 53.4419 497.46 61.7355V64.2236C497.46 71.5841 498.445 77.4415 500.415 81.7956C502.488 86.1498 506.013 89.5709 510.989 92.0589C516.069 94.547 523.274 96.4649 532.604 97.8126L580.345 104.033C595.895 106.106 608.439 109.579 617.977 114.452C627.514 119.22 634.616 126.011 639.281 134.823C643.946 143.531 646.279 154.831 646.279 168.723V176.965C646.279 188.783 643.687 198.995 638.503 207.599C633.424 216.204 624.197 223.098 610.823 228.281C597.45 233.361 578.997 235.901 555.464 235.901Z" fill="white"/>
<path d="M681.578 261.404H690.287C696.299 261.404 701.276 260.782 705.215 259.538C709.154 258.294 712.524 256.065 715.323 252.851C718.226 249.637 720.817 245.076 723.098 239.167L729.629 221.75L665.717 68.1112H695.574L743.936 185.828L787.633 68.1112H817.334L749.845 245.231C746.009 255.184 741.655 263.114 736.783 269.024C732.014 275.036 726.156 279.391 719.21 282.086C712.265 284.885 703.66 286.285 693.397 286.285H681.578V261.404Z" fill="white"/>
<path d="M849.679 68.1112H876.737V85.3722C881.195 78.6337 887.882 73.7094 896.797 70.5993C905.816 67.4892 916.961 65.9341 930.231 65.9341C946.507 65.9341 959.569 67.9557 969.418 71.9988C979.37 75.9383 986.627 82.0548 991.189 90.3484C995.75 98.642 998.031 109.372 998.031 122.538V233.724H970.351V129.225C970.351 119.376 969.055 111.704 966.463 106.21C963.872 100.715 959.207 96.7241 952.468 94.236C945.833 91.6443 936.295 90.3484 923.855 90.3484C911.518 90.3484 901.981 91.8516 895.242 94.858C888.504 97.8645 883.838 102.374 881.247 108.387C878.655 114.296 877.359 122.227 877.359 132.179V233.724H849.679V68.1112Z" fill="white"/>
<path d="M1098.8 233.724C1084.6 233.724 1073.97 230.562 1066.92 224.238C1059.97 217.914 1056.5 208.117 1056.5 194.848V92.0589H1026.18V68.1112H1056.81V32.1895H1084.18V68.1112H1130.68V92.0589H1084.18V183.34C1084.18 189.872 1084.75 194.796 1085.89 198.113C1087.03 201.431 1089.31 203.867 1092.73 205.422C1096.26 206.873 1101.6 207.599 1108.75 207.599H1137.05V233.724H1098.8Z" fill="white"/>
<path d="M1218.07 236.212C1203.76 236.212 1192.52 234.553 1184.33 231.236C1176.14 227.918 1170.28 222.942 1166.75 216.307C1163.33 209.673 1161.62 201.016 1161.62 190.338V187.85C1161.62 175.824 1163.54 166.442 1167.38 159.704C1171.21 152.965 1177.28 147.989 1185.57 144.775C1193.97 141.561 1205.73 139.177 1220.87 137.622L1245.13 134.978C1254.15 134.045 1260.94 132.905 1265.5 131.557C1270.16 130.106 1273.38 128.136 1275.14 125.648C1277.01 123.16 1277.94 119.687 1277.94 115.229V112.43C1277.94 107.35 1276.75 103.203 1274.36 99.9897C1272.08 96.7759 1267.73 94.3397 1261.3 92.681C1254.98 90.9186 1245.96 90.0374 1234.24 90.0374C1223.46 90.0374 1215.17 91.0222 1209.36 92.992C1203.66 94.9617 1199.77 97.6053 1197.7 100.923C1195.63 104.24 1194.43 108.387 1194.12 113.363L1193.81 117.406H1165.51L1165.82 110.72C1166.24 102.115 1168.83 94.4434 1173.6 87.7048C1178.47 80.9663 1185.93 75.6273 1195.99 71.6878C1206.04 67.6447 1218.8 65.6231 1234.24 65.6231C1259.23 65.6231 1277.32 69.5626 1288.51 77.4415C1299.71 85.2167 1305.31 96.3094 1305.31 110.72V233.724H1278.25V213.664C1273.9 221.232 1266.74 226.882 1256.79 230.614C1246.94 234.346 1234.04 236.212 1218.07 236.212ZM1190.08 188.472C1190.08 195.003 1190.96 199.876 1192.72 203.09C1194.49 206.303 1197.75 208.584 1202.52 209.932C1207.39 211.176 1214.8 211.798 1224.76 211.798C1260.21 211.798 1277.94 198.943 1277.94 173.233V150.684C1275.66 152.861 1272.45 154.468 1268.3 155.505C1264.26 156.542 1258.04 157.578 1249.64 158.615L1225.07 161.414C1215.22 162.555 1207.91 163.902 1203.14 165.457C1198.48 167.012 1195.11 169.449 1193.03 172.766C1191.06 175.98 1190.08 180.8 1190.08 187.228V188.472Z" fill="white"/>
<path d="M1390.06 146.175L1335.94 68.1112H1369.69L1411.21 129.847L1452.88 68.1112H1484.14L1428.94 149.596L1487.87 233.724H1453.51L1407.63 165.924L1363.62 233.724H1332.21L1390.06 146.175Z" fill="white"/>
<path d="M1516.17 68.1112H1543.54V233.724H1516.17V68.1112ZM1515.09 2.79909H1544.48V35.2996H1515.09V2.79909Z" fill="white"/>
<path d="M1639.18 236.212C1624.87 236.212 1613.62 234.553 1605.43 231.236C1597.24 227.918 1591.39 222.942 1587.86 216.307C1584.44 209.673 1582.73 201.016 1582.73 190.338V187.85C1582.73 175.824 1584.65 166.442 1588.48 159.704C1592.32 152.965 1598.38 147.989 1606.68 144.775C1615.07 141.561 1626.84 139.177 1641.98 137.622L1666.24 134.978C1675.26 134.045 1682.05 132.905 1686.61 131.557C1691.27 130.106 1694.49 128.136 1696.25 125.648C1698.11 123.16 1699.05 119.687 1699.05 115.229V112.43C1699.05 107.35 1697.86 103.203 1695.47 99.9897C1693.19 96.7759 1688.84 94.3397 1682.41 92.681C1676.08 90.9186 1667.07 90.0374 1655.35 90.0374C1644.57 90.0374 1636.28 91.0222 1630.47 92.992C1624.77 94.9617 1620.88 97.6053 1618.81 100.923C1616.73 104.24 1615.54 108.387 1615.23 113.363L1614.92 117.406H1586.62L1586.93 110.72C1587.34 102.115 1589.93 94.4434 1594.7 87.7048C1599.58 80.9663 1607.04 75.6273 1617.1 71.6878C1627.15 67.6447 1639.9 65.6231 1655.35 65.6231C1680.33 65.6231 1698.43 69.5626 1709.62 77.4415C1720.82 85.2167 1726.42 96.3094 1726.42 110.72V233.724H1699.36V213.664C1695 221.232 1687.85 226.882 1677.9 230.614C1668.05 234.346 1655.14 236.212 1639.18 236.212ZM1611.19 188.472C1611.19 195.003 1612.07 199.876 1613.83 203.09C1615.59 206.303 1618.86 208.584 1623.63 209.932C1628.5 211.176 1635.91 211.798 1645.86 211.798C1681.32 211.798 1699.05 198.943 1699.05 173.233V150.684C1696.77 152.861 1693.55 154.468 1689.41 155.505C1685.36 156.542 1679.14 157.578 1670.75 158.615L1646.18 161.414C1636.33 162.555 1629.02 163.902 1624.25 165.457C1619.58 167.012 1616.22 169.449 1614.14 172.766C1612.17 175.98 1611.19 180.8 1611.19 187.228V188.472Z" fill="white"/>
<path d="M1737.31 42.8856V10.8706H1725.98V4.88562H1755.39V10.8706H1744.07V42.8856H1737.31ZM1762.34 42.8856V4.88562H1769.38L1780.71 29.4906L1791.94 4.88562H1798.98V42.8856H1792.32V18.8506L1782.71 39.3706H1778.61L1769.1 18.8506V42.8856H1762.34Z" fill="white"/>
<path d="M20.4916 270.688C15.8039 266 8.20355 266 3.51581 270.688C-1.17194 275.376 -1.17194 282.976 3.51581 287.664C8.20355 292.352 15.8039 292.352 20.4916 287.664C25.1794 282.976 25.1794 275.376 20.4916 270.688Z" fill="white"/>
<path d="M92.4392 267.39C86.1889 261.14 76.0551 261.14 69.8048 267.39C63.5544 273.641 63.5545 283.774 69.8048 290.025C76.0551 296.275 86.1889 296.275 92.4392 290.025C98.6895 283.774 98.6895 273.641 92.4392 267.39Z" fill="white"/>
<path d="M22.7611 11.4464C18.0733 6.7587 10.473 6.7587 5.78525 11.4464C1.09751 16.1342 1.09751 23.7345 5.78525 28.4223C10.473 33.11 18.0733 33.11 22.7611 28.4223C27.4488 23.7345 27.4488 16.1342 22.7611 11.4464Z" fill="white"/>
<path d="M84.5083 206.67C79.8206 201.982 72.2202 201.982 67.5325 206.67C62.8447 211.357 62.8447 218.958 67.5325 223.645C72.2202 228.333 79.8206 228.333 84.5083 223.645C89.196 218.958 89.196 211.357 84.5083 206.67Z" fill="white"/>
<path d="M85.643 77.0675C80.9553 72.3798 73.3549 72.3798 68.6672 77.0675C63.9795 81.7553 63.9795 89.3556 68.6672 94.0433C73.355 98.7311 80.9553 98.7311 85.643 94.0433C90.3308 89.3556 90.3308 81.7553 85.643 77.0675Z" fill="white"/>
<path d="M94.6899 8.1664C88.4396 1.91608 78.3058 1.91608 72.0555 8.1664C65.8051 14.4167 65.8051 24.5505 72.0555 30.8008C78.3058 37.0511 88.4396 37.0511 94.6899 30.8008C100.94 24.5505 100.94 14.4167 94.6899 8.1664Z" fill="white"/>
<path d="M176.147 265.14C168.334 257.327 155.667 257.327 147.854 265.14C140.041 272.953 140.041 285.62 147.854 293.433C155.667 301.246 168.334 301.246 176.147 293.433C183.96 285.62 183.96 272.953 176.147 265.14Z" fill="white"/>
<path d="M156.44 203.39C150.19 197.14 140.056 197.14 133.806 203.39C127.556 209.641 127.556 219.775 133.806 226.025C140.056 232.275 150.19 232.275 156.44 226.025C162.691 219.775 162.691 209.641 156.44 203.39Z" fill="white"/>
<path d="M148.506 142.671C143.818 137.983 136.218 137.983 131.53 142.671C126.843 147.359 126.843 154.959 131.53 159.647C136.218 164.334 143.819 164.334 148.506 159.647C153.194 154.959 153.194 147.359 148.506 142.671Z" fill="white"/>
<path d="M157.591 73.7699C151.34 67.5196 141.207 67.5196 134.956 73.7699C128.706 80.0202 128.706 90.154 134.956 96.4043C141.207 102.655 151.34 102.655 157.591 96.4043C163.841 90.154 163.841 80.0202 157.591 73.7699Z" fill="white"/>
<path d="M178.416 5.89935C170.603 -1.91355 157.936 -1.91355 150.123 5.89935C142.31 13.7123 142.31 26.3795 150.123 34.1924C157.936 42.0053 170.603 42.0053 178.416 34.1924C186.229 26.3795 186.229 13.7122 178.416 5.89935Z" fill="white"/>
<path d="M240.163 201.123C232.35 193.311 219.683 193.311 211.87 201.123C204.057 208.936 204.057 221.604 211.87 229.416C219.683 237.229 232.35 237.229 240.163 229.416C247.976 221.604 247.976 208.936 240.163 201.123Z" fill="white"/>
<path d="M220.454 139.374C214.203 133.124 204.07 133.124 197.819 139.374C191.569 145.624 191.569 155.758 197.819 162.009C204.07 168.259 214.203 168.259 220.454 162.009C226.704 155.758 226.704 145.624 220.454 139.374Z" fill="white"/>
<path d="M241.282 71.5014C233.469 63.6885 220.802 63.6885 212.989 71.5014C205.176 79.3143 205.176 91.9816 212.989 99.7945C220.802 107.607 233.469 107.607 241.282 99.7945C249.095 91.9816 249.095 79.3143 241.282 71.5014Z" fill="white"/>
<path d="M304.183 137.105C296.37 129.292 283.703 129.292 275.89 137.105C268.077 144.918 268.077 157.585 275.89 165.398C283.703 173.211 296.37 173.211 304.183 165.398C311.996 157.585 311.996 144.918 304.183 137.105Z" fill="white"/>
</svg>
