<svg width="1337" height="682" viewBox="0 0 1337 682" fill="none" xmlns="http://www.w3.org/2000/svg">
<path d="M497.814 269.275C493.15 264.611 485.589 264.611 480.925 269.275C476.261 273.939 476.261 281.5 480.925 286.164C485.589 290.828 493.15 290.828 497.814 286.164C502.478 281.5 502.478 273.939 497.814 269.275Z" fill="black"/>
<path d="M569.397 265.994C563.178 259.775 553.096 259.775 546.877 265.994C540.659 272.212 540.659 282.295 546.877 288.513C553.096 294.732 563.178 294.732 569.397 288.513C575.615 282.295 575.615 272.212 569.397 265.994Z" fill="black"/>
<path d="M500.072 11.3489C495.408 6.68492 487.847 6.68492 483.183 11.3489C478.519 16.0128 478.519 23.5746 483.183 28.2385C487.847 32.9025 495.408 32.9025 500.072 28.2385C504.736 23.5746 504.736 16.0128 500.072 11.3489Z" fill="black"/>
<path d="M561.506 205.581C556.842 200.917 549.28 200.917 544.616 205.581C539.952 210.245 539.952 217.807 544.616 222.471C549.28 227.135 556.842 227.135 561.506 222.471C566.17 217.807 566.17 210.245 561.506 205.581Z" fill="black"/>
<path d="M562.635 76.6369C557.971 71.9729 550.409 71.9729 545.745 76.6369C541.081 81.3008 541.081 88.8626 545.745 93.5265C550.409 98.1904 557.971 98.1904 562.635 93.5265C567.299 88.8625 567.299 81.3008 562.635 76.6369Z" fill="black"/>
<path d="M571.636 8.08547C565.417 1.86688 555.335 1.86688 549.116 8.08548C542.898 14.3041 542.898 24.3864 549.116 30.605C555.335 36.8236 565.417 36.8236 571.636 30.605C577.855 24.3864 577.855 14.3041 571.636 8.08547Z" fill="black"/>
<path d="M652.679 263.754C644.906 255.981 632.303 255.981 624.53 263.754C616.757 271.528 616.757 284.131 624.53 291.904C632.303 299.677 644.906 299.677 652.679 291.904C660.453 284.131 660.453 271.528 652.679 263.754Z" fill="black"/>
<path d="M633.073 202.319C626.854 196.1 616.772 196.1 610.553 202.319C604.335 208.537 604.335 218.62 610.553 224.838C616.772 231.057 626.854 231.057 633.073 224.838C639.292 218.62 639.292 208.537 633.073 202.319Z" fill="black"/>
<path d="M625.179 141.907C620.515 137.243 612.953 137.243 608.29 141.907C603.626 146.571 603.626 154.133 608.29 158.797C612.954 163.461 620.515 163.461 625.179 158.797C629.843 154.133 629.843 146.571 625.179 141.907Z" fill="black"/>
<path d="M634.217 73.356C627.999 67.1374 617.916 67.1374 611.698 73.356C605.479 79.5746 605.479 89.6569 611.698 95.8755C617.916 102.094 627.999 102.094 634.217 95.8755C640.436 89.6569 640.436 79.5746 634.217 73.356Z" fill="black"/>
<path d="M654.937 5.82993C647.164 -1.94331 634.561 -1.94331 626.788 5.82993C619.015 13.6032 619.015 26.2061 626.788 33.9793C634.561 41.7526 647.164 41.7526 654.937 33.9793C662.71 26.2061 662.71 13.6032 654.937 5.82993Z" fill="black"/>
<path d="M716.371 200.063C708.598 192.29 695.995 192.29 688.222 200.063C680.448 207.836 680.448 220.439 688.222 228.212C695.995 235.986 708.598 235.986 716.371 228.212C724.144 220.439 724.144 207.836 716.371 200.063Z" fill="black"/>
<path d="M696.762 138.627C690.543 132.409 680.461 132.409 674.242 138.627C668.023 144.846 668.023 154.928 674.242 161.147C680.461 167.365 690.543 167.365 696.762 161.147C702.98 154.928 702.98 144.846 696.762 138.627Z" fill="black"/>
<path d="M717.484 71.099C709.711 63.3258 697.108 63.3258 689.335 71.099C681.561 78.8723 681.561 91.4752 689.335 99.2484C697.108 107.022 709.711 107.022 717.484 99.2484C725.257 91.4752 725.257 78.8723 717.484 71.099Z" fill="black"/>
<path d="M780.066 136.37C772.292 128.596 759.689 128.596 751.916 136.37C744.143 144.143 744.143 156.746 751.916 164.519C759.689 172.292 772.292 172.292 780.066 164.519C787.839 156.746 787.839 144.143 780.066 136.37Z" fill="black"/>
<path d="M92.37 630.769C68.5259 630.769 50.0208 628.385 36.8547 623.616C23.6886 618.744 14.5138 612.005 9.3303 603.401C4.1468 594.796 1.24404 583.859 0.62202 570.589L0 557.216H29.0794L29.7015 567.79C30.2198 576.706 31.9304 583.755 34.8331 588.939C37.7359 594.122 43.5932 598.165 52.4052 601.068C61.3208 603.867 74.5387 605.267 92.059 605.267C109.372 605.267 122.486 603.867 131.402 601.068C140.421 598.165 146.382 594.174 149.285 589.094C152.291 584.014 153.794 577.328 153.794 569.034V566.546C153.794 557.734 152.499 550.788 149.907 545.708C147.419 540.628 143.479 536.793 138.088 534.201C132.698 531.609 125.233 529.639 115.696 528.292L67.8002 521.605C52.457 519.428 40.3795 516.162 31.5675 511.808C22.7556 507.35 16.328 501.182 12.2849 493.303C8.34543 485.424 6.3757 475.109 6.3757 462.358V454.116C6.3757 442.297 8.76011 432.086 13.5289 423.481C18.4014 414.773 27.0579 407.827 39.4983 402.644C52.0423 397.46 69.2516 394.868 91.1259 394.868C113.726 394.868 131.402 397.46 144.153 402.644C156.905 407.723 165.716 414.514 170.589 423.015C175.565 431.516 178.364 441.779 178.986 453.805L179.297 460.802H150.995L150.684 456.604C150.062 448.207 148.3 441.468 145.397 436.388C142.494 431.308 136.844 427.369 128.447 424.57C120.05 421.771 107.713 420.371 91.4369 420.371C75.4718 420.371 63.3424 421.823 55.0488 424.725C46.8588 427.524 41.3643 431.464 38.5652 436.544C35.7661 441.624 34.3666 448.31 34.3666 456.604V459.092C34.3666 466.452 35.3515 472.31 37.3212 476.664C39.3946 481.018 42.9194 484.439 47.8955 486.927C52.9754 489.415 60.1804 491.333 69.5107 492.681L117.251 498.901C132.801 500.975 145.345 504.448 154.883 509.32C164.421 514.089 171.522 520.879 176.187 529.691C180.852 538.399 183.185 549.699 183.185 563.591V571.833C183.185 583.651 180.593 593.863 175.41 602.467C170.33 611.072 161.103 617.966 147.73 623.15C134.356 628.229 115.903 630.769 92.37 630.769Z" fill="black"/>
<path d="M218.485 656.272H227.193C233.206 656.272 238.182 655.65 242.121 654.406C246.061 653.162 249.43 650.933 252.229 647.719C255.132 644.506 257.724 639.944 260.004 634.035L266.536 616.618L202.623 462.98H232.48L280.842 580.697L324.539 462.98H354.24L286.751 640.1C282.915 650.052 278.561 657.983 273.689 663.892C268.92 669.905 263.063 674.259 256.117 676.954C249.171 679.753 240.566 681.153 230.303 681.153H218.485V656.272Z" fill="black"/>
<path d="M386.585 462.98H413.643V480.241C418.101 473.502 424.788 468.578 433.703 465.468C442.723 462.358 453.867 460.802 467.137 460.802C483.413 460.802 496.476 462.824 506.324 466.867C516.277 470.807 523.533 476.923 528.095 485.217C532.656 493.51 534.937 504.24 534.937 517.406V628.592H507.257V524.093C507.257 514.244 505.961 506.573 503.37 501.078C500.778 495.584 496.113 491.592 489.374 489.104C482.739 486.513 473.202 485.217 460.761 485.217C448.425 485.217 438.887 486.72 432.148 489.726C425.41 492.733 420.745 497.242 418.153 503.255C415.561 509.165 414.265 517.095 414.265 527.048V628.592H386.585V462.98Z" fill="black"/>
<path d="M635.704 628.592C621.502 628.592 610.875 625.43 603.826 619.107C596.88 612.783 593.407 602.986 593.407 589.716V486.927H563.084V462.98H593.718V427.058H621.087V462.98H667.583V486.927H621.087V578.209C621.087 584.74 621.657 589.664 622.797 592.982C623.938 596.299 626.219 598.735 629.64 600.29C633.164 601.742 638.503 602.467 645.657 602.467H673.959V628.592H635.704Z" fill="black"/>
<path d="M754.977 631.08C740.67 631.08 729.422 629.422 721.232 626.104C713.042 622.787 707.185 617.811 703.66 611.176C700.239 604.541 698.528 595.884 698.528 585.206V582.718C698.528 570.693 700.446 561.311 704.282 554.572C708.118 547.833 714.183 542.857 722.476 539.643C730.873 536.43 742.64 534.045 757.776 532.49L782.035 529.847C791.054 528.914 797.844 527.773 802.406 526.426C807.071 524.974 810.285 523.004 812.047 520.516C813.913 518.028 814.846 514.555 814.846 510.098V507.298C814.846 502.219 813.654 498.072 811.27 494.858C808.989 491.644 804.635 489.208 798.207 487.549C791.883 485.787 782.864 484.906 771.149 484.906C760.368 484.906 752.074 485.891 746.268 487.86C740.567 489.83 736.679 492.474 734.606 495.791C732.532 499.109 731.34 503.255 731.029 508.231L730.718 512.275H702.416L702.727 505.588C703.142 496.983 705.733 489.312 710.502 482.573C715.375 475.835 722.839 470.496 732.895 466.556C742.951 462.513 755.702 460.491 771.149 460.491C796.134 460.491 814.224 464.431 825.42 472.31C836.617 480.085 842.215 491.178 842.215 505.588V628.592H815.157V608.532C810.803 616.1 803.65 621.75 793.697 625.482C783.849 629.214 770.942 631.08 754.977 631.08ZM726.986 583.34C726.986 589.872 727.867 594.744 729.629 597.958C731.392 601.172 734.657 603.452 739.426 604.8C744.299 606.044 751.711 606.666 761.663 606.666C797.119 606.666 814.846 593.811 814.846 568.101V545.553C812.565 547.73 809.352 549.337 805.205 550.373C801.162 551.41 794.942 552.447 786.544 553.483L761.974 556.283C752.126 557.423 744.817 558.771 740.048 560.326C735.383 561.881 732.014 564.317 729.94 567.634C727.971 570.848 726.986 575.669 726.986 582.096V583.34Z" fill="black"/>
<path d="M926.965 541.043L872.85 462.98H906.594L948.114 524.715L989.789 462.98H1021.05L965.841 544.464L1024.78 628.592H990.411L944.537 560.792L900.529 628.592H869.117L926.965 541.043Z" fill="black"/>
<path d="M1053.08 462.98H1080.45V628.592H1053.08V462.98ZM1051.99 397.667H1081.38V430.168H1051.99V397.667Z" fill="black"/>
<path d="M1176.08 631.08C1161.78 631.08 1150.53 629.422 1142.34 626.104C1134.15 622.787 1128.29 617.811 1124.77 611.176C1121.35 604.541 1119.64 595.884 1119.64 585.206V582.718C1119.64 570.693 1121.55 561.311 1125.39 554.572C1129.23 547.833 1135.29 542.857 1143.58 539.643C1151.98 536.43 1163.75 534.045 1178.88 532.49L1203.14 529.847C1212.16 528.914 1218.95 527.773 1223.51 526.426C1228.18 524.974 1231.39 523.004 1233.15 520.516C1235.02 518.028 1235.95 514.555 1235.95 510.098V507.298C1235.95 502.219 1234.76 498.072 1232.38 494.858C1230.1 491.644 1225.74 489.208 1219.31 487.549C1212.99 485.787 1203.97 484.906 1192.26 484.906C1181.48 484.906 1173.18 485.891 1167.38 487.86C1161.67 489.83 1157.79 492.474 1155.71 495.791C1153.64 499.109 1152.45 503.255 1152.14 508.231L1151.83 512.275H1123.52L1123.83 505.588C1124.25 496.983 1126.84 489.312 1131.61 482.573C1136.48 475.835 1143.95 470.496 1154 466.556C1164.06 462.513 1176.81 460.491 1192.26 460.491C1217.24 460.491 1235.33 464.431 1246.53 472.31C1257.72 480.085 1263.32 491.178 1263.32 505.588V628.592H1236.26V608.532C1231.91 616.1 1224.76 621.75 1214.8 625.482C1204.96 629.214 1192.05 631.08 1176.08 631.08ZM1148.09 583.34C1148.09 589.872 1148.97 594.744 1150.74 597.958C1152.5 601.172 1155.76 603.452 1160.53 604.8C1165.41 606.044 1172.82 606.666 1182.77 606.666C1218.23 606.666 1235.95 593.811 1235.95 568.101V545.553C1233.67 547.73 1230.46 549.337 1226.31 550.373C1222.27 551.41 1216.05 552.447 1207.65 553.483L1183.08 556.283C1173.23 557.423 1165.92 558.771 1161.16 560.326C1156.49 561.881 1153.12 564.317 1151.05 567.634C1149.08 570.848 1148.09 575.669 1148.09 582.096V583.34Z" fill="black"/>
<path d="M1274.55 438V405.985H1263.23V400H1292.64V405.985H1281.31V438H1274.55ZM1299.58 438V400H1306.63L1317.95 424.605L1329.18 400H1336.23V438H1329.56V413.965L1319.95 434.485H1315.86L1306.34 413.965V438H1299.58Z" fill="black"/>
</svg>
